Coordinates
version=1
nRows=26
nColumns=22
inDegrees=yes

Units are S.I. units (second, meters, Newtons, ...)
If the header above contains a line with 'inDegrees', this indicates whether rotational values are in degrees (yes) or radians (no).

endheader
time	pelvis_tilt	pelvis_list	pelvis_rotation	pelvis_tx	pelvis_ty	pelvis_tz	hip_flexion_r	hip_adduction_r	hip_rotation_r	knee_angle_r	ankle_angle_r	subtalar_angle_r	hip_flexion_l	hip_adduction_l	hip_rotation_l	knee_angle_l	ankle_angle_l	subtalar_angle_l	lumbar_extension	lumbar_bending	lumbar_rotation
      0.01000000	     -2.00964784	     -4.17061898	     -0.74318298	     -0.96373792	      1.01361144	     -0.55733082	      1.33145160	      2.62041119	     -1.72322790	    -10.15334665	      9.69829924	      0.08701386	     -1.40680050	     -5.26697893	     -8.37040992	     -6.46758167	     10.52680444	     -1.52066098	     -1.90599425	      1.02167965	     -2.57001839
      0.02000000	     -2.01197734	     -4.16826385	     -0.74637566	     -0.96376368	      1.01359552	     -0.55724292	      1.33176229	      2.62287817	     -1.72721187	    -10.14594250	      9.70100205	      0.08921237	     -1.40477808	     -5.26999505	     -8.37449234	     -6.46515321	     10.52639331	     -1.52035664	     -1.90854424	      1.01555759	     -2.57455475
      0.03000000	     -2.02088937	     -4.15970798	     -0.74496636	     -0.96374464	      1.01356380	     -0.55716225	      1.32604666	      2.61768391	     -1.75760857	    -10.11818792	      9.71321281	      0.09725091	     -1.40103288	     -5.26579852	     -8.40269510	     -6.45327165	     10.52429247	     -1.51771905	     -1.89220344	      1.00401691	     -2.58309166
      0.04000000	     -2.03196197	     -4.14810164	     -0.74901164	     -0.96376515	      1.01352513	     -0.55705436	      1.33193084	      2.61030693	     -1.79651075	    -10.10230812	      9.72095627	      0.10255423	     -1.39333371	     -5.25959788	     -8.42256858	     -6.44284817	     10.52085775	     -1.51341279	     -1.88163831	      0.98553323	     -2.58485815
      0.05000000	     -2.05518307	     -4.12219652	     -0.75029145	     -0.96381789	      1.01346764	     -0.55695253	      1.36208827	      2.58664863	     -1.85561499	    -10.10422956	      9.73663017	      0.10350851	     -1.36632136	     -5.23797622	     -8.43771157	     -6.43921217	     10.50799767	     -1.50042387	     -1.86158088	      0.95138485	     -2.59683590
      0.06000000	     -2.07018910	     -4.11559059	     -0.75699580	     -0.96383626	      1.01341853	     -0.55681819	      1.36604394	      2.58689486	     -1.88880603	    -10.07757539	      9.74499589	      0.10059174	     -1.35736796	     -5.23861843	     -8.45102722	     -6.42498645	     10.50931807	     -1.49857273	     -1.84613811	      0.93343524	     -2.59132679
      0.07000000	     -2.08690204	     -4.10429340	     -0.76259397	     -0.96385376	      1.01337174	     -0.55670226	      1.37560116	      2.58030877	     -1.93178739	    -10.05731584	      9.75051873	      0.09442112	     -1.34387998	     -5.23318945	     -8.46999970	     -6.41503823	     10.50641301	     -1.49564344	     -1.82868616	      0.91282692	     -2.59354464
      0.08000000	     -2.09106010	     -4.10205143	     -0.77145319	     -0.96389618	      1.01334950	     -0.55658105	      1.37924456	      2.58488805	     -1.93896662	    -10.05118478	      9.75169569	      0.09367066	     -1.33992140	     -5.23721097	     -8.47066152	     -6.41293415	     10.50615416	     -1.49537203	     -1.83309993	      0.90198345	     -2.59698591
      0.09000000	     -2.12024952	     -4.07934541	     -0.76327349	     -0.96389257	      1.01329226	     -0.55651752	      1.40873349	      2.56313308	     -2.00649365	    -10.04568960	      9.76152282	      0.06867301	     -1.29947075	     -5.21855470	     -8.48504377	     -6.42603963	     10.49845050	     -1.48636710	     -1.79676385	      0.87029500	     -2.61915034
      0.10000000	     -2.12167720	     -4.07956082	     -0.76963936	     -0.96388278	      1.01327969	     -0.55641792	      1.40746249	      2.56908515	     -2.00945750	    -10.04275483	      9.76286468	      0.06812339	     -1.29882808	     -5.22418618	     -8.48301906	     -6.42780530	     10.49891763	     -1.48634694	     -1.79492069	      0.86009817	     -2.61981953
      0.11000000	     -2.12268195	     -4.07997202	     -0.77654409	     -0.96385751	      1.01327048	     -0.55633034	      1.40488778	      2.57432957	     -2.01278755	    -10.03845519	      9.76463262	      0.06738175	     -1.29839899	     -5.22927023	     -8.48055762	     -6.43273902	     10.49968551	     -1.48639551	     -1.79155552	      0.85168573	     -2.62003943
      0.12000000	     -2.12506711	     -4.08461427	     -0.77616925	     -0.96382205	      1.01325840	     -0.55626781	      1.39363704	      2.58328768	     -2.01687887	    -10.01595499	      9.77354339	      0.06197660	     -1.28483583	     -5.23948574	     -8.47212264	     -6.45971210	     10.50907748	     -1.48708407	     -1.78546945	      0.84846524	     -2.61089660
      0.13000000	     -2.12455460	     -4.08624922	     -0.78409922	     -0.96378436	      1.01325313	     -0.55619345	      1.39120745	      2.58867931	     -2.01712860	    -10.01628372	      9.77359235	      0.06141628	     -1.28582769	     -5.24490760	     -8.46950782	     -6.46650476	     10.51117307	     -1.48736809	     -1.78286985	      0.84203878	     -2.61529483
      0.14000000	     -2.12017446	     -4.10005637	     -0.78417540	     -0.96377731	      1.01324954	     -0.55613567	      1.38216870	      2.60794007	     -2.00140923	    -10.00994634	      9.77574274	      0.05558807	     -1.27164617	     -5.26551121	     -8.46061825	     -6.50617122	     10.53542871	     -1.49021673	     -1.79201685	      0.85033459	     -2.62022402
      0.15000000	     -2.11766136	     -4.11581580	     -0.79329452	     -0.96374425	      1.01324297	     -0.55607202	      1.37666117	      2.62821116	     -1.99158656	    -10.00868851	      9.77169404	      0.05013323	     -1.26832626	     -5.28658105	     -8.46562775	     -6.52590158	     10.56191500	     -1.49276713	     -1.79311052	      0.86292219	     -2.62248395
      0.16000000	     -2.11760577	     -4.11720044	     -0.80035039	     -0.96370343	      1.01323686	     -0.55601721	      1.37535618	      2.63221176	     -1.99188322	    -10.00932025	      9.77151357	      0.04997774	     -1.27023167	     -5.29068924	     -8.46470205	     -6.52960592	     10.56227469	     -1.49282878	     -1.79151885	      0.85643926	     -2.62451103
      0.17000000	     -2.11699153	     -4.11893084	     -0.80897195	     -0.96366783	      1.01323138	     -0.55595930	      1.37397867	      2.63656697	     -1.99076044	    -10.01099195	      9.77179263	      0.04969138	     -1.27205287	     -5.29516559	     -8.46406302	     -6.53478854	     10.56326398	     -1.49302994	     -1.79091491	      0.85062769	     -2.62642983
      0.18000000	     -2.10898191	     -4.12861940	     -0.82783895	     -0.96366580	      1.01323126	     -0.55588963	      1.37415349	      2.65022699	     -1.95972192	    -10.02837827	      9.77759518	      0.04507582	     -1.27337028	     -5.30966658	     -8.48227959	     -6.55749652	     10.58015556	     -1.49580092	     -1.80646105	      0.85595377	     -2.61644717
      0.19000000	     -2.11009986	     -4.12975622	     -0.83751011	     -0.96363079	      1.01322364	     -0.55583193	      1.37376119	      2.65424164	     -1.96042615	    -10.02707275	      9.77806772	      0.04483112	     -1.27586535	     -5.31342016	     -8.48419697	     -6.55851994	     10.58165730	     -1.49608142	     -1.80529334	      0.84944086	     -2.61809445
      0.20000000	     -2.10857844	     -4.13609293	     -0.87286817	     -0.96358016	      1.01321359	     -0.55574793	      1.37564179	      2.66394879	     -1.92911719	    -10.03816607	      9.78521159	      0.03831743	     -1.29034000	     -5.32159368	     -8.54002919	     -6.55145942	     10.60691391	     -1.50053106	     -1.80384580	      0.85347139	     -2.59682885
      0.21000000	     -2.10968417	     -4.13691834	     -0.88244810	     -0.96355759	      1.01320768	     -0.55569155	      1.37605370	      2.66756100	     -1.92890135	    -10.03700003	      9.78540449	      0.03812571	     -1.29117711	     -5.32541806	     -8.53974392	     -6.55453242	     10.60645635	     -1.50051239	     -1.80591797	      0.84618589	     -2.59765370
      0.22000000	     -2.11028181	     -4.13759713	     -0.89418814	     -0.96352747	      1.01320131	     -0.55563965	      1.37611194	      2.67056562	     -1.92757981	    -10.03765297	      9.78572356	      0.03777746	     -1.29363912	     -5.32831118	     -8.54135567	     -6.55780720	     10.60665480	     -1.50062943	     -1.80625702	      0.84081581	     -2.59870398
      0.23000000	     -2.10620697	     -4.13963361	     -0.94108796	     -0.96351308	      1.01319940	     -0.55554276	      1.38507086	      2.67620438	     -1.87305702	    -10.06342597	      9.79175373	      0.03036053	     -1.30748556	     -5.33217415	     -8.61210344	     -6.55688832	     10.61955250	     -1.50314585	     -1.81598744	      0.84003651	     -2.56464786
      0.24000000	     -2.10782121	     -4.14019666	     -0.95107555	     -0.96348303	      1.01319219	     -0.55549634	      1.38427778	      2.67905522	     -1.87425255	    -10.06076461	      9.79228004	      0.03024097	     -1.30881306	     -5.33467926	     -8.61195582	     -6.55915063	     10.61939997	     -1.50304938	     -1.81547445	      0.83427411	     -2.56573987
      0.25000000	     -2.10933470	     -4.14061814	     -0.96199277	     -0.96345252	      1.01318514	     -0.55545588	      1.38390492	      2.68121250	     -1.87454110	    -10.05928696	      9.79269280	      0.03014040	     -1.31064356	     -5.33642340	     -8.61345326	     -6.56090397	     10.61969999	     -1.50301463	     -1.81486703	      0.83011277	     -2.56741079
      0.26000000	     -2.11274375	     -4.13986316	     -0.99799640	     -0.96340724	      1.01317478	     -0.55538850	      1.38924221	      2.68248006	     -1.84024268	    -10.06563993	      9.79506369	      0.02878319	     -1.31963572	     -5.33565627	     -8.67377677	     -6.55323610	     10.62988122	     -1.50272997	     -1.80916357	      0.82865713	     -2.55094784
